# xmcd
#
# Track frame offsets:
#  150
#  20808
#  33651
#  45240
#  59141
#  79409
#  90469
#  108606
#  124695
#  139725
#  155507
#  168879
#
# Disc length: 2389 seconds
#
# Revision: 0
# Processed by: cddbd v1.5.1PL2 Copyright (c) Steve Scherf et al.
# Submitted via: Collectorz.com Music Collector 6.9
#
DISCID=a109530c
DTITLE=Rock Cat Rock - Mess Around
DYEAR=1900
DGENRE=
TTITLE0=Make It Right
TTITLE1=Bop A Lena
TTITLE2=One After 909
TTITLE3=Folsom Prison Blues
TTITLE4=Ain't Nothing $100 Won't Fix
TTITLE5=You Know What I Mean
TTITLE6=I'll See You Again
TTITLE7=His Latest Flame
TTITLE8=Closer Closer
TTITLE9=Baby What You Want
TTITLE10=Guitars And Cadillacs
TTITLE11=Mess Around
EXTD=
EXTT0=
EXTT1=
EXTT2=
EXTT3=
EXTT4=
EXTT5=
EXTT6=
EXTT7=
EXTT8=
EXTT9=
EXTT10=
EXTT11=
PLAYORDER=
